<?xml version="1.0" encoding="utf-8"?>
<!-- Generator: Adobe Illustrator 22.0.1, SVG Export Plug-In . SVG Version: 6.00 Build 0)  -->
<svg version="1.1" id="Layer_1" xmlns="http://www.w3.org/2000/svg" xmlns:xlink="http://www.w3.org/1999/xlink" x="0px" y="0px"
	 viewBox="0 0 75 15" style="enable-background:new 0 0 75 15;" xml:space="preserve">
<style type="text/css">
	.st0{fill:#FF4954;}
	.st1{fill-rule:evenodd;clip-rule:evenodd;fill:#FFFFFF;}
	.st2{fill:#FFFFFF;}
</style>
<path class="st0" d="M75,15H0V2c0-1.1,0.9-2,2-2h50.9c1.4,0,2.7,0.4,3.8,1.3L75,15z"/>
<g>
	<path class="st1" d="M10.7,8.4L10.7,8.4L10.7,8.4c0,0,0-0.1,0-0.1c0-0.8,0.2-1.4,0.7-2c0.3-0.3,0.6-0.6,1.1-0.6
		c0.4-0.1,0.8,0,1.1,0.3C13.8,6.1,14,6.3,14,6.7c0,0.2,0,0.5-0.1,0.7l0,0l0,0c0,0,0,0.1,0,0.1c0,0.1,0,0.2,0,0.2
		c0,0.2-0.1,0.4-0.1,0.6c-0.2,0.7-0.6,1.1-1.3,1.3c-0.4,0.1-0.9,0.1-1.2-0.2c-0.3-0.2-0.4-0.5-0.4-0.8C10.7,8.5,10.7,8.4,10.7,8.4z
		 M13.5,9.9C13.6,9.9,13.6,9.9,13.5,9.9L13.5,9.9C13.6,9.9,13.6,9.9,13.5,9.9L13.5,9.9c0.1,0.1,0.1,0.1,0.1,0.1
		c0,0.2-0.1,0.5-0.1,0.7c0,0.1,0,0.1,0.1,0.1c0.4,0,0.8,0,1.3,0c0.1,0,0.1,0,0.1-0.1c0-0.1,0-0.1,0-0.2c0-0.2,0.1-0.5,0.1-0.7
		c0.1-0.5,0.2-1.1,0.3-1.6c0.1-0.4,0.1-0.8,0.2-1.1c0-0.2,0.1-0.3,0.1-0.5c0.1-0.5,0.2-1,0.3-1.5c0.1-0.5,0.2-0.9,0.2-1.4
		c0.1-0.5,0.2-1,0.3-1.5c0-0.2,0.1-0.3,0.1-0.5l0,0c0-0.1,0-0.2,0-0.2c0,0-0.1,0-0.1,0c-0.2,0-0.3,0-0.5,0c-0.3,0-0.6,0-1,0
		c-0.1,0-0.1,0-0.1,0.1c0,0.1,0,0.3-0.1,0.4c-0.1,0.5-0.2,1-0.3,1.5c-0.1,0.5-0.2,1.1-0.3,1.6c0,0,0,0.1,0,0.1c0,0,0,0,0-0.1
		c-0.2-0.3-0.5-0.6-0.8-0.7c-0.6-0.2-1.2-0.2-1.8,0.1c-0.9,0.3-1.5,0.9-1.9,1.7C9.3,6.9,9.1,7.6,9.1,8.3c0,0.4,0,0.7,0.1,1.1
		c0.2,0.6,0.5,1.1,1.1,1.3c0.5,0.3,1.1,0.3,1.7,0.2C12.6,10.8,13.2,10.4,13.5,9.9z"/>
	<path class="st1" d="M20.8,6.9c0,0,0,0.1,0,0.1v0c0,0.8-0.2,1.4-0.7,2c-0.3,0.4-0.7,0.6-1.1,0.7c-0.5,0.1-0.9,0-1.2-0.4
		c-0.2-0.2-0.3-0.5-0.3-0.7c0-0.2,0-0.4,0.1-0.7c0-0.1,0-0.1,0-0.2c0-0.2,0.1-0.4,0.1-0.6c0.2-0.8,0.7-1.3,1.4-1.5
		c0.3-0.1,0.6-0.1,0.9,0c0.4,0.2,0.7,0.5,0.7,1C20.8,6.7,20.8,6.8,20.8,6.9z M17.9,5.4C17.9,5.5,17.9,5.5,17.9,5.4
		C17.9,5.5,17.9,5.4,17.9,5.4c0-0.1,0-0.2,0-0.2l0,0c0-0.1,0-0.1,0-0.2c0,0,0-0.1,0-0.1l0,0c0-0.1,0-0.3,0-0.4c0-0.1,0-0.1-0.1-0.1
		h-1.3c0,0-0.1,0-0.1,0.1c0,0.3-0.1,0.6-0.1,0.8c-0.1,0.5-0.2,1-0.2,1.5C16.1,7.2,16,7.6,16,8c0,0.2-0.1,0.3-0.1,0.5
		c-0.1,0.5-0.2,1-0.3,1.5c-0.1,0.5-0.2,0.9-0.3,1.4c-0.1,0.6-0.2,1.1-0.3,1.7c0,0.1,0,0.2,0,0.2c0,0,0,0.1,0,0.1c0,0,0,0,0,0h1.5
		c0.1,0,0.1,0,0.1-0.1c0.1-0.3,0.1-0.6,0.2-0.9l0-0.2c0.1-0.7,0.2-1.3,0.3-2c0-0.1,0-0.1,0-0.2l0,0l0,0c0,0,0,0,0,0l0,0
		c0,0,0,0,0,0.1c0.1,0.2,0.3,0.4,0.5,0.5c0.3,0.2,0.7,0.3,1.1,0.3c0.3,0,0.6,0,0.9-0.1c0.9-0.3,1.6-0.9,2.1-1.8
		c0.3-0.6,0.5-1.3,0.6-2c0-0.4,0-0.8-0.1-1.2c-0.2-0.6-0.6-1.1-1.2-1.3c-0.5-0.2-1-0.2-1.6-0.1C18.9,4.6,18.4,4.9,17.9,5.4
		C17.9,5.4,17.9,5.4,17.9,5.4z"/>
	<path class="st1" d="M51.5,7c0-0.1,0-0.2,0-0.3c-0.1-0.3-0.2-0.6-0.5-0.8c-0.3-0.2-0.7-0.3-1.1-0.2c-0.8,0.2-1.2,0.7-1.4,1.5
		c-0.1,0.2-0.1,0.4-0.1,0.6c0,0.1,0,0.1,0,0.2c0,0.2-0.1,0.4-0.1,0.7c0,0.2,0.1,0.5,0.2,0.7c0.3,0.4,0.8,0.5,1.3,0.5
		c0.5-0.1,0.8-0.3,1.1-0.7c0.5-0.6,0.6-1.2,0.7-2h0C51.5,7,51.5,7,51.5,7L51.5,7z M47.9,10.1c0,0.1,0,0.1,0,0.2c0,0,0,0,0,0.1
		c-0.1,0.7-0.2,1.3-0.3,2c-0.1,0.4-0.1,0.7-0.2,1.1c0,0,0,0.1-0.1,0.1h-1.5c0,0,0,0,0,0c0,0,0-0.1,0-0.1l0,0c0-0.1,0-0.2,0-0.2
		c0.1-0.6,0.2-1.1,0.3-1.7c0-0.3,0.1-0.5,0.1-0.7c0-0.2,0.1-0.5,0.1-0.7c0.1-0.5,0.2-1.1,0.3-1.6c0-0.2,0.1-0.4,0.1-0.5l0,0l0,0l0,0
		l0,0c0.1-0.3,0.1-0.6,0.2-1C46.9,6.4,47,6,47,5.6c0.1-0.3,0.1-0.7,0.1-1c0,0,0-0.1,0.1-0.1h1.3c0.1,0,0.1,0,0.1,0.1
		c0,0.2,0,0.5-0.1,0.7c0,0,0,0.1,0,0.1l0,0c0,0,0,0,0,0l0,0l0,0c0,0,0,0,0,0c0,0,0,0,0.1-0.1c0.3-0.3,0.6-0.6,1-0.8
		c0.4-0.2,0.8-0.3,1.2-0.3c0.4,0,0.8,0,1.1,0.2c0.6,0.3,0.9,0.7,1.1,1.3c0.1,0.4,0.2,0.8,0.1,1.2c0,0.7-0.2,1.4-0.6,2
		c-0.5,0.9-1.2,1.5-2.1,1.8C50.2,11,49.8,11,49.5,11c-0.4,0-0.8-0.1-1.1-0.3C48.2,10.6,48,10.4,47.9,10.1
		C47.9,10.2,47.9,10.2,47.9,10.1C47.9,10.2,47.9,10.1,47.9,10.1z"/>
	<path class="st2" d="M36,4.6c0.2-1,0.4-2,0.5-3c-0.5,0-1,0-1.6,0c0,0,0,0,0,0c0,0,0,0,0,0c0,0.1,0,0.2-0.1,0.4l0,0c0,0,0,0,0,0.1
		c-0.1,0.8-0.3,1.6-0.4,2.5c-0.1,0.4-0.1,0.8-0.2,1.1C34.1,6,34.1,6.4,34,6.8c-0.1,0.4-0.1,0.8-0.2,1.2c-0.1,0.3-0.1,0.6-0.2,1
		c-0.1,0.6-0.2,1.3-0.3,1.9c0,0,0,0.1,0.1,0.1c0.2,0,0.5,0,0.7,0c0.2,0,0.5,0,0.7,0c0,0,0,0,0,0c0,0,0,0,0,0c0-0.2,0.1-0.3,0.1-0.5
		l0,0c0,0,0-0.1,0-0.1c0.1-0.5,0.2-1,0.3-1.5c0.1-0.5,0.2-1,0.3-1.5l0,0c0-0.2,0.1-0.5,0.2-0.7c0.4-0.6,0.9-0.9,1.6-0.8
		c0.4,0,0.7,0.3,0.8,0.7c0.1,0.3,0,0.7,0,1c-0.1,0.5-0.2,1-0.3,1.5c-0.1,0.5-0.2,1-0.3,1.5l0,0l0,0c0,0.2-0.1,0.3-0.1,0.5
		c0,0,0.1,0,0.1,0c0.2,0,0.3,0,0.5,0c0.3,0,0.6,0,1,0c0.1,0,0.1,0,0.1-0.1c0-0.2,0.1-0.4,0.1-0.6l0,0c0-0.1,0-0.2,0.1-0.4
		c0-0.2,0.1-0.3,0.1-0.5l0,0l0,0c0.1-0.4,0.1-0.7,0.2-1.1c0-0.1,0-0.1,0-0.2l0,0c0.1-0.4,0.1-0.9,0.2-1.3c0-0.3,0-0.7,0-1
		c-0.1-0.5-0.4-0.9-0.9-1.1c-0.5-0.2-0.9-0.2-1.4-0.1c-0.6,0.1-1.1,0.5-1.5,0.9c0,0,0,0-0.1,0.1l0,0L36,4.6z"/>
	<path class="st2" d="M29.1,4.5c0,0.2-0.1,0.3-0.1,0.5c-0.1,0.5-0.2,1-0.3,1.5c0,0.2-0.1,0.3-0.1,0.5l0,0c-0.1,0.3-0.1,0.6-0.2,0.9
		c0,0.1,0,0.2-0.1,0.3l0,0l0,0l0,0c-0.1,0.4-0.2,0.9-0.2,1.3c0,0.3-0.1,0.6-0.1,0.9l0,0c0,0.1,0,0.2,0,0.3c0,0.1,0,0.1-0.1,0.1
		c-0.3,0-0.5,0-0.8,0c-0.1,0-0.3,0-0.4,0c-0.1,0-0.1,0-0.1-0.1l0,0c0-0.2,0-0.4,0.1-0.6c0-0.1,0-0.1,0-0.2c0-0.1,0-0.1,0-0.2l0,0
		l0,0c0,0,0,0-0.1,0.1c-0.4,0.5-1,0.9-1.7,1c-0.4,0.1-0.8,0.1-1.2-0.1c-0.6-0.2-0.9-0.6-1-1.2c-0.1-0.3-0.1-0.7,0-1
		c0.1-0.5,0.1-0.9,0.2-1.4l0-0.1C23,6.8,23,6.4,23.1,6.1c0-0.2,0.1-0.3,0.1-0.5c0.1-0.3,0.1-0.7,0.2-1c0,0,0-0.1,0.1-0.1h1.5
		c0,0,0,0,0.1,0c0,0,0,0.1,0,0.1l0,0c0,0.1,0,0.2-0.1,0.3c-0.1,0.5-0.2,1.1-0.3,1.6c0,0.1,0,0.3-0.1,0.4l0,0c-0.1,0.3-0.1,0.7-0.2,1
		c-0.1,0.4-0.1,0.7,0,1.1c0.1,0.4,0.4,0.6,0.7,0.7c0.5,0,0.9-0.1,1.2-0.5c0.3-0.3,0.5-0.7,0.5-1.1c0.1-0.3,0.1-0.7,0.2-1
		c0-0.2,0.1-0.3,0.1-0.5c0.1-0.5,0.2-1,0.3-1.4c0-0.2,0.1-0.5,0.1-0.7c0,0,0-0.1,0.1-0.1L29.1,4.5C29.1,4.5,29.1,4.5,29.1,4.5z"/>
	<path class="st2" d="M42.3,4.9L42.3,4.9c0-0.1,0-0.3,0.1-0.4c0,0,0,0-0.1,0h-1.5c-0.1,0-0.1,0-0.1,0.1c-0.1,0.4-0.2,0.9-0.2,1.3
		c0,0.2-0.1,0.3-0.1,0.5c-0.1,0.3-0.1,0.6-0.2,1c-0.1,0.5-0.2,0.9-0.2,1.4c-0.1,0.3,0,0.7,0,1c0.1,0.5,0.4,0.9,0.9,1.2
		c0.4,0.2,0.9,0.2,1.4,0.1c0.7-0.1,1.2-0.5,1.7-1c0,0,0,0,0.1-0.1l0,0c0,0,0,0,0,0l0,0l0,0c0,0,0,0.1,0,0.1c0,0.1,0,0.1,0,0.2
		c0,0.2,0,0.4-0.1,0.5c0,0.1,0,0.1,0.1,0.1c0.1,0,0.3,0,0.4,0h0c0.3,0,0.5,0,0.8,0c0.1,0,0.1,0,0.1-0.1c0,0,0-0.1,0-0.1l0-0.1
		c0-0.3,0.1-0.6,0.1-0.9c0.1-0.5,0.2-0.9,0.2-1.4l0,0l0-0.1c0.1-0.4,0.1-0.8,0.2-1.1l0,0l0,0c0-0.2,0.1-0.3,0.1-0.5l0.3-1.8
		c0-0.1,0-0.2,0-0.2l0,0l0,0c0,0,0-0.1,0-0.1c0,0,0,0,0,0H45c0,0,0,0,0,0c0,0,0,0,0,0c0,0.1-0.1,0.3-0.1,0.4l0,0c0,0,0,0.1,0,0.1
		c-0.1,0.5-0.2,1.1-0.3,1.6c0,0.1,0,0.3-0.1,0.4l0,0l0,0c-0.1,0.4-0.1,0.7-0.2,1.1c-0.1,0.4-0.2,0.7-0.5,1c-0.4,0.4-0.8,0.6-1.3,0.5
		c-0.2,0-0.3-0.1-0.5-0.2c-0.1-0.1-0.2-0.3-0.3-0.4c-0.1-0.3-0.1-0.6,0-0.9c0-0.3,0.1-0.5,0.1-0.8l0,0c0.1-0.5,0.2-1.1,0.3-1.6
		C42.2,5.4,42.3,5.1,42.3,4.9z"/>
	<path class="st1" d="M7.1,7.7H7c-0.1,0-0.1,0-0.2,0c-0.1,0-0.2,0-0.4,0c-0.3,0-0.6,0.1-0.9,0.2c-0.5,0.2-0.9,0.5-1,1.1
		c0,0.3,0.1,0.7,0.5,0.8c0.3,0.1,0.5,0,0.8,0c0.5-0.2,0.9-0.5,1-1.1C7,8.6,7,8.5,7,8.4c0-0.1,0-0.1,0-0.2C7.1,8,7.1,7.9,7.1,7.7z
		 M4.4,5.9c0-0.1,0-0.2,0-0.3c0-0.2-0.1-0.4-0.1-0.7c0-0.1,0-0.1,0.1-0.1c0.1,0,0.1-0.1,0.2-0.1C4.7,4.7,4.8,4.6,5,4.6
		c0.5-0.2,1-0.2,1.5-0.3c0.4,0,0.8,0,1.2,0.1c0.7,0.2,1.1,0.7,1.2,1.4c0.1,0.4,0,0.8,0,1.2C8.7,7.6,8.6,8.1,8.5,8.7
		c0,0.1,0,0.2-0.1,0.3c0,0.3-0.1,0.5-0.1,0.8c0,0.3-0.1,0.6-0.1,0.9l0,0c0,0.2,0,0.2-0.2,0.2H6.9c-0.1,0-0.1,0-0.1-0.1
		c0-0.2,0-0.4,0-0.6c0,0,0-0.1,0-0.1c0,0,0,0-0.1,0c-0.4,0.4-0.9,0.6-1.4,0.7c-0.5,0.1-1,0.1-1.5-0.1c-0.2-0.1-0.4-0.3-0.5-0.4
		C3.1,10.2,3.1,9.9,3,9.7C2.9,9,3.2,8.5,3.6,7.9C4,7.5,4.5,7.2,5,7c0.4-0.1,0.9-0.2,1.3-0.3c0.3,0,0.5,0,0.8,0l0.1,0
		c0.1,0,0.1,0,0.1-0.1c0-0.2,0.1-0.4,0-0.6C7.2,5.7,6.9,5.5,6.5,5.5C6,5.4,5.4,5.5,4.9,5.7c-0.1,0-0.2,0.1-0.3,0.1
		C4.5,5.8,4.5,5.9,4.4,5.9L4.4,5.9z"/>
	<path class="st2" d="M33.1,5.7c0.1,0,0.1,0.1,0.2,0.1c0-0.1,0.1-0.2,0.1-0.3c0.1-0.2,0.2-0.4,0.3-0.7l0,0c0.1-0.1,0.1-0.2-0.1-0.2
		c-0.6-0.3-1.2-0.3-1.9-0.3c-0.4,0-0.7,0.1-1.1,0.3c-0.6,0.3-1,0.7-1.2,1.4c-0.1,0.3-0.1,0.5-0.1,0.8c0.1,0.4,0.2,0.6,0.5,0.9
		c0.3,0.2,0.6,0.4,1,0.5c0.2,0.1,0.4,0.2,0.6,0.3c0.1,0.1,0.2,0.2,0.2,0.3c0.1,0.3,0,0.6-0.3,0.7c-0.2,0.2-0.5,0.2-0.8,0.3
		c-0.4,0-0.8-0.1-1.2-0.2c-0.1,0-0.2-0.1-0.4-0.2c-0.1,0-0.1-0.1-0.2-0.1c-0.1,0.3-0.3,0.6-0.4,0.9c0,0.1-0.1,0.1-0.1,0.2
		c0.1,0,0.1,0.1,0.2,0.1c0.1,0,0.2,0.1,0.3,0.1C29.5,11,30,11,30.5,11c0.4,0,0.8-0.1,1.1-0.2c0.9-0.3,1.5-0.9,1.6-1.9
		c0.1-0.5-0.1-1-0.5-1.3c-0.3-0.2-0.6-0.4-0.9-0.5c-0.2-0.1-0.4-0.2-0.6-0.3C31,6.5,30.9,6.4,31,6.1c0.1-0.3,0.3-0.5,0.6-0.6
		c0.4-0.1,0.7-0.1,1.1,0C32.8,5.6,32.9,5.7,33.1,5.7z"/>
</g>
</svg>
