<svg xmlns="http://www.w3.org/2000/svg" width="58" height="45">
    <path fill="#ffffff" fill-rule="evenodd" d="M56.322 36.695c-2.405 0-4.713-.85-6.715-2.467-2.003 1.617-4.312 2.467-6.716 2.467-2.407 0-4.716-.85-6.717-2.466-2.003 1.616-4.312 2.466-6.717 2.466-2.404 0-4.713-.85-6.716-2.467-2.004 1.617-4.312 2.467-6.717 2.467-2.404 0-4.713-.85-6.716-2.467-2.002 1.615-4.306 2.465-6.71 2.467h-.007c-.923 0-1.673-.711-1.673-1.589 0-.52.265-.979.67-1.269a1.537 1.537 0 0 1-.079-.486v-8.113c0-1.752 1.5-3.177 3.345-3.177h.447v-7.408h3.702v7.408h3.344v-7.408h22.498v7.408h.45c1.842 0 3.344 1.425 3.344 3.177v3.675h17.683c.925 0 1.673.712 1.673 1.589v3.692l-.303.001c.19.259.303.573.303.911 0 .878-.748 1.589-1.673 1.589zm-38.3-20.497h-1.009c-.922 0-1.672.711-1.672 1.588 0 .878.75 1.589 1.672 1.589h1.009c.925 0 1.673-.711 1.673-1.589 0-.877-.748-1.588-1.673-1.588zm14.314 5.333v-2.3c0-.876-.748-1.588-1.673-1.588-.921 0-1.671.712-1.671 1.588v3.981h-3.437v-3.981c0-.876-.748-1.588-1.673-1.588-.922 0-1.672.712-1.672 1.588v11.61a2.637 2.637 0 0 1 2.284.612c.342.31.698.585 1.061.827v-.19h3.437v1.409c.154.011.311.019.465.019.982 0 1.954-.224 2.879-.657v-11.33zm-6.781 4.858h3.437v2.524h-3.437v-2.524zm9.24-14.913H5.025c-1.299 0-2.352-1.002-2.352-2.236 0-.883.547-1.683 1.395-2.042L18.953.9a2.463 2.463 0 0 1 1.914 0l14.885 6.298c.85.359 1.396 1.159 1.396 2.042 0 1.234-1.053 2.236-2.353 2.236zM2.591 41.136c.951 0 1.887-.209 2.785-.615a8.513 8.513 0 0 0 2.179-1.448 2.637 2.637 0 0 1 3.506-.001 8.441 8.441 0 0 0 2.181 1.449 6.714 6.714 0 0 0 2.782.615c.949 0 1.887-.209 2.783-.615a8.437 8.437 0 0 0 2.181-1.448 2.637 2.637 0 0 1 3.506-.001 8.441 8.441 0 0 0 2.181 1.449 6.72 6.72 0 0 0 2.782.615 6.73 6.73 0 0 0 2.785-.615 8.431 8.431 0 0 0 2.179-1.447 2.633 2.633 0 0 1 3.504 0 8.475 8.475 0 0 0 2.181 1.447 6.724 6.724 0 0 0 2.785.615c.946 0 1.884-.209 2.78-.615a8.404 8.404 0 0 0 2.181-1.448 2.636 2.636 0 0 1 3.506 0 8.505 8.505 0 0 0 2.181 1.448 6.728 6.728 0 0 0 2.783.615c.925 0 1.673.712 1.673 1.589s-.748 1.589-1.673 1.589c-2.405 0-4.713-.851-6.715-2.468-2.003 1.617-4.312 2.468-6.716 2.468-2.407 0-4.713-.851-6.717-2.467-2.003 1.616-4.31 2.467-6.714 2.467-2.407 0-4.716-.851-6.719-2.468-2.004 1.617-4.31 2.468-6.717 2.468-2.404 0-4.713-.851-6.716-2.468-2.002 1.616-4.308 2.466-6.71 2.468h-.007c-.923 0-1.671-.712-1.671-1.589s.748-1.589 1.671-1.589z"/>
</svg>
