<svg xmlns="http://www.w3.org/2000/svg" width="50" height="52">
    <path fill="#ffffff" fill-rule="evenodd" d="M49.054 11.786l-9.687-3.238s-.127-.047-.297-.044a.847.847 0 0 0-.303.066l-6.271 2.601V6.894a.886.886 0 0 0-.598-.841L14.337.186s-.161-.067-.391-.034c-.229.032-.39.159-.39.159L.72 9.621a.889.889 0 0 0-.363.721v33.057c0 .323.173.62.451.775l12.84 7.159s.123.074.315.101c.192.026.314-.021.314-.021l17.561-4.509 7.47-1.917 9.684-2.485a.883.883 0 0 0 .654-.858l.004-29.017a.881.881 0 0 0-.596-.841zM5.504 40.169a.301.301 0 0 1-.123.243.298.298 0 0 1-.267.034l-2.53-.947a.293.293 0 0 1-.188-.276v-4.99a.29.29 0 0 1 .342-.291l2.528.483a.295.295 0 0 1 .238.29v5.454zm0-8.18a.3.3 0 0 1-.096.218.284.284 0 0 1-.194.075l-.029-.001-2.528-.25a.29.29 0 0 1-.261-.293v-4.99c0-.154.117-.281.265-.294l2.53-.212a.293.293 0 0 1 .313.292v5.455zm0-8.181a.295.295 0 0 1-.242.291l-2.528.443a.286.286 0 0 1-.236-.065.292.292 0 0 1-.105-.225v-4.99c0-.125.08-.237.195-.278l2.53-.908a.288.288 0 0 1 .265.038.3.3 0 0 1 .121.241v5.453zm0-8.18a.293.293 0 0 1-.173.269l-2.528 1.139a.286.286 0 0 1-.276-.023.292.292 0 0 1-.131-.246v-4.989c0-.103.052-.198.135-.251l2.53-1.603a.287.287 0 0 1 .295-.008c.09.052.148.151.148.257v5.455zm6.79 27.082a.294.294 0 0 1-.29.295.242.242 0 0 1-.099-.019l-3.743-1.401a.29.29 0 0 1-.19-.275v-6.013a.294.294 0 0 1 .344-.291l3.742.715a.295.295 0 0 1 .238.29v6.699h-.002zm0-10.047a.298.298 0 0 1-.096.217.282.282 0 0 1-.194.077l-.028-.001-3.743-.372a.293.293 0 0 1-.261-.294v-6.013c0-.154.117-.282.267-.293l3.742-.314a.276.276 0 0 1 .219.076.303.303 0 0 1 .094.216v6.701zm0-10.048a.294.294 0 0 1-.24.291l-3.744.657c-.017.002-.033.005-.048.005a.292.292 0 0 1-.29-.294V17.26c0-.124.077-.236.192-.277l3.741-1.343a.29.29 0 0 1 .266.036.303.303 0 0 1 .121.241v6.698h.002zm0-10.047a.297.297 0 0 1-.173.27l-3.742 1.686a.285.285 0 0 1-.276-.022.3.3 0 0 1-.131-.248V8.242a.29.29 0 0 1 .137-.249l3.742-2.373a.283.283 0 0 1 .293-.008.3.3 0 0 1 .15.258v6.698zm9.98 35.954c0 .136-.09.254-.22.288l-5.958 1.528a.298.298 0 0 1-.248-.052.297.297 0 0 1-.111-.233v-13.82c0-.155.115-.281.265-.295l5.956-.523a.289.289 0 0 1 .222.076c.06.056.094.135.094.216v12.815zm0-16.017a.294.294 0 0 1-.278.295l-5.956.272-.013.001a.293.293 0 0 1-.292-.295v-6.911c0-.079.033-.157.09-.212a.283.283 0 0 1 .211-.081l5.956.23c.154.006.28.137.28.295v6.406h.002zm0-9.612a.292.292 0 0 1-.291.295l-.025-.001-5.956-.482a.29.29 0 0 1-.265-.294V15.5c0-.085.037-.167.1-.224a.298.298 0 0 1 .236-.066l5.956.984a.293.293 0 0 1 .245.292v6.407zm0-9.61a.293.293 0 0 1-.349.289l-5.958-1.236a.295.295 0 0 1-.232-.288V5.136c0-.091.042-.179.115-.235a.282.282 0 0 1 .254-.048l5.957 1.739a.297.297 0 0 1 .211.284v6.407h.002zm7.456 33.325c0 .134-.09.253-.217.285l-4.795 1.233a.286.286 0 0 1-.249-.054.304.304 0 0 1-.11-.234V35.474c0-.153.115-.281.263-.294l4.805-.422a.283.283 0 0 1 .221.075.297.297 0 0 1 .094.217l-.012 11.558zm.012-14.445a.29.29 0 0 1-.278.293l-4.804.221h-.013a.279.279 0 0 1-.199-.081.297.297 0 0 1-.091-.213v-6.182c0-.081.033-.157.089-.212a.272.272 0 0 1 .211-.082l4.805.185c.157.007.28.137.28.294v5.777zm0-8.666a.29.29 0 0 1-.29.295c-.008 0-.015 0-.023-.002l-4.805-.389a.293.293 0 0 1-.267-.293v-6.182a.292.292 0 0 1 .336-.292l4.805.794c.14.023.244.148.244.292v5.777zm0-8.666a.286.286 0 0 1-.108.229.286.286 0 0 1-.241.062l-4.805-.997a.297.297 0 0 1-.231-.29V7.653c0-.092.043-.18.117-.236a.275.275 0 0 1 .25-.047l4.807 1.402a.293.293 0 0 1 .209.284v5.775h.002zm7.939 19.523c0 .154-.117.28-.267.294l-3.725.328-.025.001a.29.29 0 0 1-.289-.294v-8.132c0-.079.03-.157.086-.212a.293.293 0 0 1 .215-.081l3.725.143c.155.007.28.136.28.294v7.659zm0-10.214a.292.292 0 0 1-.096.216.282.282 0 0 1-.194.077h-.023l-3.727-.3a.293.293 0 0 1-.266-.295v-8.131a.29.29 0 0 1 .349-.289l3.725.773a.291.291 0 0 1 .232.289v7.66zm7.08-10.531c0-.092.042-.18.115-.236a.285.285 0 0 1 .253-.047l2.546.744a.295.295 0 0 1 .214.283v4.246a.306.306 0 0 1-.109.229.294.294 0 0 1-.242.058l-2.549-.528a.292.292 0 0 1-.23-.289v-4.46h.002zm0 6.691c0-.087.036-.17.1-.225a.285.285 0 0 1 .236-.065l2.547.421c.14.023.245.146.245.292v4.244c0 .082-.034.16-.097.216a.28.28 0 0 1-.196.077l-.023-.001-2.547-.205a.292.292 0 0 1-.265-.294V20.3zm0 6.689a.292.292 0 0 1 .299-.293l2.549.099c.154.006.28.135.28.295v4.246a.294.294 0 0 1-.276.294l-2.549.116-.015.001a.284.284 0 0 1-.2-.082.287.287 0 0 1-.088-.213v-4.463zm-.794 15.965c0 .134-.09.252-.217.286l-2.973.762a.283.283 0 0 1-.248-.053.296.296 0 0 1-.113-.233v-9.654c0-.153.115-.28.265-.295l2.973-.26a.275.275 0 0 1 .219.076.294.294 0 0 1 .094.217v9.154zm0-11.441a.292.292 0 0 1-.278.295l-2.97.136h-.015a.287.287 0 0 1-.288-.295v-4.826c0-.081.031-.157.087-.212a.286.286 0 0 1 .214-.084l2.97.116a.291.291 0 0 1 .278.295v4.575h.002zm0-6.865c0 .082-.033.16-.092.216a.289.289 0 0 1-.198.079l-.021-.001-2.973-.241a.292.292 0 0 1-.267-.295v-4.824c0-.087.037-.168.102-.225a.284.284 0 0 1 .234-.066l2.973.492c.14.022.244.145.244.291v4.574h-.002zm0-6.862a.296.296 0 0 1-.106.227.284.284 0 0 1-.243.06l-2.97-.615a.297.297 0 0 1-.232-.291v-4.826c0-.092.044-.18.115-.236a.286.286 0 0 1 .255-.047l2.97.866a.296.296 0 0 1 .209.285v4.577h.002zm3.788 24.425l-2.632.676a.3.3 0 0 1-.251-.053.299.299 0 0 1-.111-.234v-8.921c0-.153.113-.28.265-.294l2.545-.223a.286.286 0 0 1 .221.074.304.304 0 0 1 .097.215l.087 8.469c0 .136-.09.258-.221.291z"/>
</svg>
