<svg xmlns="http://www.w3.org/2000/svg" width="55" height="49">
    <path fill="#ffffff" fill-rule="evenodd" d="M29.127 48.879V37.406l3.699-1.644 5.298 2.353 7.321-3.253 6.207 10.806h3.121v3.211H29.127zm16.048-30.297c-1.389 0-2.933-.452-3.837-1.126l-.026-.018a7.421 7.421 0 0 0 4.379-6.778 7.42 7.42 0 0 0-4.381-6.778l.069-.047c.928-.646 2.491-1.097 3.796-1.097 4.293 0 7.786 3.554 7.786 7.922s-3.493 7.922-7.786 7.922zm-7.051 16.024l-5.298-2.354-3.699 1.644v-9.661h10.215l4.498 7.832-5.716 2.539zM17.559 21.025l8.129-14.154-2.944-5.121L25.508.144l2.022 3.519L29.553.144l2.764 1.606-2.944 5.121L37.5 21.025H17.559zm8.375 12.872l-3.702-1.645-5.296 2.354-5.715-2.539 4.497-7.832h10.216v9.662zM8.254 15.789l2.256-2.269 2.257 2.269-2.257 2.27-2.256-2.27zm0-10.258l2.256-2.27 2.257 2.27-2.257 2.27-2.256-2.27zM3.152 10.66l2.257-2.269 2.258 2.269-2.258 2.27-2.257-2.27zm6.464 24.202l7.32 3.253 5.296-2.353 3.702 1.644v11.473H.288v-3.211h3.121l6.207-10.806z"/>
</svg>
