<svg xmlns="http://www.w3.org/2000/svg" width="53" height="45">
    <path fill="#ffffff" fill-rule="evenodd" d="M48.692 44.314v-8.635h-4.425v8.635h-3.52v-8.635h-4.429v8.635h-4.751a4.66 4.66 0 0 0 .01-.291v-8c0-2.414-2.097-4.371-4.683-4.371-2.587 0-4.684 1.957-4.684 4.371v8c0 .098.004.195.01.291h-4.75v-8.635h-4.427v8.635h-3.52v-8.635h-4.43v8.635H.949v-19.18h51.888v19.18h-4.145zM5.49 20.524h3.124v-3.32h2.383v3.32H42.79v-3.32h2.384v3.32h3.121v3.392H5.49v-3.392zm28.246-6.464h-2.33v4.875h-3.349V14.06H25.73v4.875h-3.349V14.06h-2.327v4.875h-2.869v-6.252c0-4.667 3.782-8.509 8.641-9.005V.709h2.135v2.969c4.859.496 8.641 4.338 8.641 9.005v6.252h-2.866V14.06z"/>
</svg>
