<svg xmlns="http://www.w3.org/2000/svg" width="50" height="49">
    <path fill="#ffffff" fill-rule="evenodd" d="M48.759 48.879c-.455 0-.821-.383-.821-.855v-.856h-.823v.856c0 .472-.366.855-.819.855-.455 0-.823-.383-.823-.855v-.856h-1.642v1.711h-6.573V33.488h-9.86v15.391H6.038v-1.711H4.394v.856c0 .472-.365.855-.821.855-.453 0-.821-.383-.821-.855v-.856h-.821v.856c0 .472-.367.855-.821.855-.455 0-.821-.383-.821-.855v-7.695c0-.473.366-.856.821-.856.454 0 .821.383.821.856v.855h.821v-.855c0-.473.368-.856.821-.856.456 0 .821.383.821.856v.855h1.644V22.303L24.935 7.145 5.387 22.825a2.39 2.39 0 0 1-3.307-.287c-.984-1.1-.851-2.838.286-3.763l20.891-17.01L24.935.144l1.677 1.621 20.892 17.01c1.134.925 1.27 2.663.286 3.763a2.393 2.393 0 0 1-3.309.287l-.65-.522v18.881h1.642v-.855c0-.473.368-.856.823-.856.453 0 .819.383.819.856v.855h.823v-.855c0-.473.366-.856.821-.856.454 0 .821.383.821.856v7.695c0 .472-.367.855-.821.855zM2.752 42.894h-.821v2.565h.821v-2.565zm3.286 0H4.394v2.565h1.644v-2.565zm6.573-.856h4.109v-3.419h-4.109v3.419zm0-5.13h4.109v-3.42h-4.109v3.42zm9.861-15.389h-9.861v1.709h9.861v-1.709zm0 3.42h-9.861v3.419h9.861v-3.419zm0 8.549h-4.11v3.42h4.11v-3.42zm0 5.131h-4.11v3.419h4.11v-3.419zm4.926-10.261h9.86v-1.709h-9.86v1.709zm0-3.419h9.86v-3.42h-9.86v3.42zm18.075 17.955h-1.642v2.565h1.642v-2.565zm2.465 0h-.823v2.565h.823v-2.565z"/>
</svg>
