<svg xmlns="http://www.w3.org/2000/svg" width="52" height="59">
    <path fill="#ffffff" fill-rule="evenodd" d="M39.462 31.239l6.213-12.098 6.211 12.098H39.462zM29.079 17.412h13.515L36.45 29.379l-7.371-11.967zm6.905-7.333a1.807 1.807 0 0 1-2.509 0 1.695 1.695 0 0 1 0-2.444l2.509-2.444a1.807 1.807 0 0 1 2.509 0 1.695 1.695 0 0 1 0 2.444l-2.509 2.444zm-10.04-3.037c-.98 0-1.776-.773-1.776-1.727V1.742c0-.955.796-1.729 1.776-1.729.981 0 1.773.774 1.773 1.729v3.573c0 .954-.792 1.727-1.773 1.727zM9.293 17.412h13.515l-7.371 11.967-6.144-11.967zm6.61-7.333l-2.509-2.444a1.696 1.696 0 0 1 0-2.444 1.807 1.807 0 0 1 2.509 0l2.511 2.444a1.698 1.698 0 0 1 0 2.444 1.81 1.81 0 0 1-2.511 0zM-.001 31.239L6.212 19.14l6.211 12.099H-.001zM22.3 59.008h-.267L.291 34.696h13.726L22.3 59.008zm11.158-27.769H18.429l7.515-12.196 7.514 12.196zm.673 3.457l-8.187 24.033-8.188-24.033h16.375zm17.463 0l-21.74 24.312h-.265l8.281-24.312h13.724z"/>
</svg>
