<svg xmlns="http://www.w3.org/2000/svg" width="19" height="16">
    <path fill="#FFF" fill-rule="evenodd" d="M17.792 12.784a.838.838 0 0 1-.331.673c-.104.1-.333.15-.333.199V4.859c-.041-1.135-.982-2.042-2.148-2.068H2.761L2.992.847c.049-.252.184-.48.382-.648.225-.151.495-.221.768-.199l13.932 1.57a.952.952 0 0 1 .69.374.956.956 0 0 1 .23.722l-1.202 10.118zm-1.687-7.925v4.187l-5.573 3.165a1.33 1.33 0 0 1-1.508-.125L6.212 9.694a2.296 2.296 0 0 0-2.838-.125L0 11.962V4.859c0-.548.384-1.071.946-1.071H14.98a1.16 1.16 0 0 1 1.125 1.071zm-6.467.499c-1.187 0-2.148.937-2.148 2.093s.961 2.094 2.148 2.094c1.186 0 2.147-.938 2.147-2.094s-.961-2.093-2.147-2.093zm0 3.19c-.621 0-1.125-.491-1.125-1.097 0-.605.504-1.096 1.125-1.096s1.125.491 1.125 1.096c0 .606-.504 1.097-1.125 1.097zm-4.09 1.894l2.786 2.392c.423.346.956.54 1.508.548.432.005.857-.107 1.227-.324l5.036-2.841v4.835c0 .548-.562.947-1.125.947H.946l-.079-.001A.906.906 0 0 1 0 15.052v-1.844l3.963-2.841a1.25 1.25 0 0 1 1.585.075z" opacity="1"/>
</svg>
