<svg xmlns="http://www.w3.org/2000/svg" width="21" height="20">
    <path fill="#FFF" fill-rule="evenodd" d="M.034 10.793c-.007-.136-.022-.269-.022-.406C.012 4.657 4.708.012 10.499.012c5.792 0 10.487 4.645 10.487 10.375 0 .137-.016.27-.02.406-.218-5.54-4.813-9.969-10.467-9.969C4.845.824.251 5.253.034 10.793zm10.465-6.198c3.534 0 6.415 2.732 6.624 6.176.009-.133.021-.265.021-.399 0-3.631-2.975-6.574-6.645-6.574-3.67 0-6.645 2.943-6.645 6.574 0 .134.013.266.021.399.209-3.444 3.091-6.176 6.624-6.176zm0 1.923c-1.202 0-2.177.965-2.177 2.154s.975 2.154 2.177 2.154 2.177-.965 2.177-2.154-.975-2.154-2.177-2.154zm0 4.488c-1.75 0-3.171.092-3.171 3.264 0 3.172 1.421 5.744 3.171 5.744 1.751 0 3.171-2.572 3.171-5.745 0-3.171-1.42-3.263-3.171-3.263z" opacity="1"/>
</svg>
